<?xml version="1.0" encoding="UTF-8" standalone="no"?>
<!-- Created with Inkscape (http://www.inkscape.org/) -->

<svg
   xmlns:dc="http://purl.org/dc/elements/1.1/"
   xmlns:cc="http://creativecommons.org/ns#"
   xmlns:rdf="http://www.w3.org/1999/02/22-rdf-syntax-ns#"
   xmlns:svg="http://www.w3.org/2000/svg"
   xmlns="http://www.w3.org/2000/svg"
   xmlns:sodipodi="http://sodipodi.sourceforge.net/DTD/sodipodi-0.dtd"
   xmlns:inkscape="http://www.inkscape.org/namespaces/inkscape"
   width="20mm"
   height="20mm"
   viewBox="0 0 70.866142 70.866141"
   id="svg2"
   version="1.1"
   inkscape:version="0.91 r13725"
   sodipodi:docname="commit.svg">
  <defs
     id="defs4" />
  <sodipodi:namedview
     id="base"
     pagecolor="#39671f"
     bordercolor="#666666"
     borderopacity="1.0"
     inkscape:pageopacity="0"
     inkscape:pageshadow="2"
     inkscape:zoom="4"
     inkscape:cx="-0.21244243"
     inkscape:cy="25.080951"
     inkscape:document-units="px"
     inkscape:current-layer="layer1"
     showgrid="false"
     inkscape:window-width="1920"
     inkscape:window-height="1043"
     inkscape:window-x="1366"
     inkscape:window-y="0"
     inkscape:window-maximized="1" />
  <metadata
     id="metadata7">
    <rdf:RDF>
      <cc:Work
         rdf:about="">
        <dc:format>image/svg+xml</dc:format>
        <dc:type
           rdf:resource="http://purl.org/dc/dcmitype/StillImage" />
        <dc:title></dc:title>
      </cc:Work>
    </rdf:RDF>
  </metadata>
  <g
     inkscape:label="Layer 1"
     inkscape:groupmode="layer"
     id="layer1"
     transform="translate(0,-981.49606)">
    <g
       id="g2719">
      <path
         inkscape:connector-curvature="0"
         id="path827"
         d="m 16.837288,1024.6784 a 9.8298254,9.8298254 0 0 0 -9.8300779,9.83 9.8298254,9.8298254 0 0 0 9.8300779,9.8301 9.8298254,9.8298254 0 0 0 9.830078,-9.8301 9.8298254,9.8298254 0 0 0 -9.830078,-9.83 z m -3.355469,2.0645 a 2.999912,2.999912 0 0 1 2.0625,0.916 2.999912,2.999912 0 0 1 -0.07617,4.2421 2.999912,2.999912 0 0 1 -4.242187,-0.076 2.999912,2.999912 0 0 1 0.07617,-4.2421 2.999912,2.999912 0 0 1 2.179687,-0.8398 z m 8.369141,1.5312 a 2.999912,2.999912 0 0 1 2.0625,0.916 2.999912,2.999912 0 0 1 -0.07617,4.2402 2.999912,2.999912 0 0 1 -4.242188,-0.074 2.999912,2.999912 0 0 1 0.07617,-4.2421 2.999912,2.999912 0 0 1 2.179688,-0.8399 z m -9.832031,6.4706 a 2.999912,2.999912 0 0 1 2.060546,0.916 2.999912,2.999912 0 0 1 -0.07422,4.2403 2.999912,2.999912 0 0 1 -4.2421877,-0.074 2.999912,2.999912 0 0 1 0.07617,-4.2422 2.999912,2.999912 0 0 1 2.1796877,-0.8399 z m 8.36914,1.5313 a 2.999912,2.999912 0 0 1 2.060547,0.914 2.999912,2.999912 0 0 1 -0.07422,4.2422 2.999912,2.999912 0 0 1 -4.242187,-0.074 2.999912,2.999912 0 0 1 0.07422,-4.2422 2.999912,2.999912 0 0 1 2.18164,-0.8398 z"
         style="color:#000000;clip-rule:nonzero;display:inline;overflow:visible;visibility:visible;opacity:1;isolation:auto;mix-blend-mode:normal;color-interpolation:sRGB;color-interpolation-filters:linearRGB;solid-color:#000000;solid-opacity:1;fill:#f1f886;fill-opacity:1;fill-rule:nonzero;stroke:none;stroke-width:5.31496048;stroke-linecap:butt;stroke-linejoin:round;stroke-miterlimit:4;stroke-dasharray:none;stroke-dashoffset:0;stroke-opacity:1;color-rendering:auto;image-rendering:auto;shape-rendering:auto;text-rendering:auto;enable-background:accumulate" />
      <path
         inkscape:connector-curvature="0"
         id="path827-7"
         d="m 53.518929,1024.6784 a 9.8298254,9.8298254 0 0 0 -9.830079,9.83 9.8298254,9.8298254 0 0 0 9.830079,9.8301 9.8298254,9.8298254 0 0 0 9.830078,-9.8301 9.8298254,9.8298254 0 0 0 -9.830078,-9.83 z m 2.964843,1.7774 a 2.999912,2.999912 0 0 1 1.091797,0.1855 2.999912,2.999912 0 0 1 1.777344,3.8515 2.999912,2.999912 0 0 1 -3.851563,1.7773 2.999912,2.999912 0 0 1 -1.779297,-3.8514 2.999912,2.999912 0 0 1 2.761719,-1.9629 z m -8.201172,2.2636 a 2.999912,2.999912 0 0 1 1.091797,0.1836 2.999912,2.999912 0 0 1 1.777344,3.8534 2.999912,2.999912 0 0 1 -3.851562,1.7774 2.999912,2.999912 0 0 1 -1.777344,-3.8516 2.999912,2.999912 0 0 1 2.759765,-1.9628 z m 10.365235,5.5781 a 2.999912,2.999912 0 0 1 1.089844,0.1836 2.999912,2.999912 0 0 1 1.779296,3.8535 2.999912,2.999912 0 0 1 -3.853515,1.7773 2.999912,2.999912 0 0 1 -1.777344,-3.8515 2.999912,2.999912 0 0 1 2.761719,-1.9629 z m -8.201172,2.2636 a 2.999912,2.999912 0 0 1 1.091797,0.1836 2.999912,2.999912 0 0 1 1.777343,3.8516 2.999912,2.999912 0 0 1 -3.851562,1.7793 2.999912,2.999912 0 0 1 -1.779297,-3.8535 2.999912,2.999912 0 0 1 2.761719,-1.961 z"
         style="color:#000000;clip-rule:nonzero;display:inline;overflow:visible;visibility:visible;opacity:1;isolation:auto;mix-blend-mode:normal;color-interpolation:sRGB;color-interpolation-filters:linearRGB;solid-color:#000000;solid-opacity:1;fill:#f1f886;fill-opacity:1;fill-rule:nonzero;stroke:none;stroke-width:5.31496048;stroke-linecap:butt;stroke-linejoin:round;stroke-miterlimit:4;stroke-dasharray:none;stroke-dashoffset:0;stroke-opacity:1;color-rendering:auto;image-rendering:auto;shape-rendering:auto;text-rendering:auto;enable-background:accumulate" />
      <path
         inkscape:connector-curvature="0"
         id="path872"
         d="m 16.793785,1024.6784 36.769554,0"
         style="color:#000000;clip-rule:nonzero;display:inline;overflow:visible;visibility:visible;opacity:1;isolation:auto;mix-blend-mode:normal;color-interpolation:sRGB;color-interpolation-filters:linearRGB;solid-color:#000000;solid-opacity:1;fill:none;fill-opacity:1;fill-rule:nonzero;stroke:#f1f886;stroke-width:6.73228359;stroke-linecap:round;stroke-linejoin:round;stroke-miterlimit:4;stroke-dasharray:none;stroke-dashoffset:0;stroke-opacity:1;color-rendering:auto;image-rendering:auto;shape-rendering:auto;text-rendering:auto;enable-background:accumulate" />
      <circle
         style="color:#000000;clip-rule:nonzero;display:inline;overflow:visible;visibility:visible;opacity:1;isolation:auto;mix-blend-mode:normal;color-interpolation:sRGB;color-interpolation-filters:linearRGB;solid-color:#000000;solid-opacity:1;fill:none;fill-opacity:1;fill-rule:nonzero;stroke:#f1f886;stroke-width:6.73228359;stroke-linecap:butt;stroke-linejoin:round;stroke-miterlimit:4;stroke-dasharray:none;stroke-dashoffset:0;stroke-opacity:1;color-rendering:auto;image-rendering:auto;shape-rendering:auto;text-rendering:auto;enable-background:accumulate"
         id="circle976"
         cx="16.837978"
         cy="1034.5078"
         r="9.8298254" />
      <circle
         style="color:#000000;clip-rule:nonzero;display:inline;overflow:visible;visibility:visible;opacity:1;isolation:auto;mix-blend-mode:normal;color-interpolation:sRGB;color-interpolation-filters:linearRGB;solid-color:#000000;solid-opacity:1;fill:none;fill-opacity:1;fill-rule:nonzero;stroke:#f1f886;stroke-width:6.73228359;stroke-linecap:butt;stroke-linejoin:round;stroke-miterlimit:4;stroke-dasharray:none;stroke-dashoffset:0;stroke-opacity:1;color-rendering:auto;image-rendering:auto;shape-rendering:auto;text-rendering:auto;enable-background:accumulate"
         id="circle978"
         cx="53.51915"
         cy="1034.5078"
         r="9.8298254" />
    </g>
    <path
       style="color:#000000;clip-rule:nonzero;display:inline;overflow:visible;visibility:visible;opacity:1;isolation:auto;mix-blend-mode:normal;color-interpolation:sRGB;color-interpolation-filters:linearRGB;solid-color:#000000;solid-opacity:1;fill:none;fill-opacity:1;fill-rule:nonzero;stroke:#f1f886;stroke-width:3.5;stroke-linecap:round;stroke-linejoin:round;stroke-miterlimit:4;stroke-dasharray:none;stroke-dashoffset:0;stroke-opacity:1;color-rendering:auto;image-rendering:auto;shape-rendering:auto;text-rendering:auto;enable-background:accumulate"
       d="m 43.151942,996.17006 6.9064,6.51374 c 0,0 6.807588,-13.69435 13.7629,-14.92344"
       id="path2712"
       inkscape:connector-curvature="0"
       sodipodi:nodetypes="ccc" />
    <path
       style="color:#000000;clip-rule:nonzero;display:inline;overflow:visible;visibility:visible;opacity:1;isolation:auto;mix-blend-mode:normal;color-interpolation:sRGB;color-interpolation-filters:linearRGB;solid-color:#000000;solid-opacity:1;fill:none;fill-opacity:1;fill-rule:nonzero;stroke:#f1f886;stroke-width:3.5;stroke-linecap:round;stroke-linejoin:round;stroke-miterlimit:4;stroke-dasharray:none;stroke-dashoffset:0;stroke-opacity:1;color-rendering:auto;image-rendering:auto;shape-rendering:auto;text-rendering:auto;enable-background:accumulate"
       d="m 29.200163,995.19527 c 0,0 -8.058007,7.30253 -4.356697,19.24253"
       id="path2726"
       inkscape:connector-curvature="0"
       sodipodi:nodetypes="cc" />
    <path
       style="color:#000000;clip-rule:nonzero;display:inline;overflow:visible;visibility:visible;opacity:1;isolation:auto;mix-blend-mode:normal;color-interpolation:sRGB;color-interpolation-filters:linearRGB;solid-color:#000000;solid-opacity:1;fill:none;fill-opacity:1;fill-rule:nonzero;stroke:#f1f886;stroke-width:3.5;stroke-linecap:round;stroke-linejoin:round;stroke-miterlimit:4;stroke-dasharray:none;stroke-dashoffset:0;stroke-opacity:1;color-rendering:auto;image-rendering:auto;shape-rendering:auto;text-rendering:auto;enable-background:accumulate"
       d="m 20.534045,1015.2639 5.279206,1.2797 3.343986,-4.2808"
       id="path2728"
       inkscape:connector-curvature="0"
       sodipodi:nodetypes="ccc" />
    <path
       style="color:#000000;clip-rule:nonzero;display:inline;overflow:visible;visibility:visible;opacity:1;isolation:auto;mix-blend-mode:normal;color-interpolation:sRGB;color-interpolation-filters:linearRGB;solid-color:#000000;solid-opacity:1;fill:none;fill-opacity:1;fill-rule:nonzero;stroke:#f1f886;stroke-width:3.5;stroke-linecap:round;stroke-linejoin:round;stroke-miterlimit:4;stroke-dasharray:none;stroke-dashoffset:0;stroke-opacity:1;color-rendering:auto;image-rendering:auto;shape-rendering:auto;text-rendering:auto;enable-background:accumulate"
       id="path2730"
       sodipodi:type="arc"
       sodipodi:cx="49.25"
       sodipodi:cy="997.36218"
       sodipodi:rx="12.75"
       sodipodi:ry="12.75"
       sodipodi:start="6.0877938"
       sodipodi:end="5.2541089"
       d="m 61.75739,994.88676 a 12.75,12.75 0 0 1 -7.497567,14.19994 12.75,12.75 0 0 1 -15.443992,-4.3971 12.75,12.75 0 0 1 1.106363,-16.01963 12.75,12.75 0 0 1 15.901839,-2.23228"
       sodipodi:open="true" />
  </g>
</svg>
