<?xml version="1.0" encoding="UTF-8" standalone="no"?>
<!-- Created with Inkscape (http://www.inkscape.org/) -->

<svg
   xmlns:dc="http://purl.org/dc/elements/1.1/"
   xmlns:cc="http://creativecommons.org/ns#"
   xmlns:rdf="http://www.w3.org/1999/02/22-rdf-syntax-ns#"
   xmlns:svg="http://www.w3.org/2000/svg"
   xmlns="http://www.w3.org/2000/svg"
   xmlns:sodipodi="http://sodipodi.sourceforge.net/DTD/sodipodi-0.dtd"
   xmlns:inkscape="http://www.inkscape.org/namespaces/inkscape"
   width="20mm"
   height="20mm"
   viewBox="0 0 70.866142 70.866141"
   id="svg2"
   version="1.1"
   inkscape:version="0.91 r13725"
   sodipodi:docname="discard.svg">
  <defs
     id="defs4" />
  <sodipodi:namedview
     id="base"
     pagecolor="#39671f"
     bordercolor="#666666"
     borderopacity="1.0"
     inkscape:pageopacity="0"
     inkscape:pageshadow="2"
     inkscape:zoom="5.6568542"
     inkscape:cx="14.311952"
     inkscape:cy="13.906121"
     inkscape:document-units="px"
     inkscape:current-layer="layer1"
     showgrid="false"
     inkscape:window-width="1920"
     inkscape:window-height="1043"
     inkscape:window-x="1366"
     inkscape:window-y="0"
     inkscape:window-maximized="1" />
  <metadata
     id="metadata7">
    <rdf:RDF>
      <cc:Work
         rdf:about="">
        <dc:format>image/svg+xml</dc:format>
        <dc:type
           rdf:resource="http://purl.org/dc/dcmitype/StillImage" />
        <dc:title></dc:title>
      </cc:Work>
    </rdf:RDF>
  </metadata>
  <g
     inkscape:label="Layer 1"
     inkscape:groupmode="layer"
     id="layer1"
     transform="translate(0,-981.49606)">
    <path
       style="color:#000000;clip-rule:nonzero;display:inline;overflow:visible;visibility:visible;opacity:1;isolation:auto;mix-blend-mode:normal;color-interpolation:sRGB;color-interpolation-filters:linearRGB;solid-color:#000000;solid-opacity:1;fill:#f1f886;fill-opacity:1;fill-rule:nonzero;stroke:none;stroke-width:1.91299999;stroke-linecap:round;stroke-linejoin:round;stroke-miterlimit:4;stroke-dasharray:none;stroke-dashoffset:0;stroke-opacity:1;color-rendering:auto;image-rendering:auto;shape-rendering:auto;text-rendering:auto;enable-background:accumulate"
       d="m 22.991664,1005.0547 c -1.432379,0 -2.583984,1.1515 -2.583984,2.5839 l 0,33.9864 c 0,1.4324 1.151605,2.5859 2.583984,2.5859 l 24.882813,0 c 1.432378,0 2.583984,-1.1535 2.583984,-2.5859 l 0,-33.9864 c 0,-1.4324 -1.151606,-2.5839 -2.583984,-2.5839 l -24.882813,0 z m 5.521485,5.6933 a 1.750175,1.750175 0 0 1 1.775391,1.7754 l 0,22.0078 a 1.750175,1.750175 0 1 1 -3.5,0 l 0,-22.0078 a 1.750175,1.750175 0 0 1 1.724609,-1.7754 z m 6.894531,0 a 1.750175,1.750175 0 0 1 1.775391,1.7754 l 0,22.0078 a 1.750175,1.750175 0 1 1 -3.5,0 l 0,-22.0078 a 1.750175,1.750175 0 0 1 1.724609,-1.7754 z m 6.894531,0 a 1.750175,1.750175 0 0 1 1.775391,1.7754 l 0,22.0078 a 1.750175,1.750175 0 1 1 -3.5,0 l 0,-22.0078 a 1.750175,1.750175 0 0 1 1.724609,-1.7754 z"
       id="rect1461"
       inkscape:connector-curvature="0" />
    <path
       style="color:#000000;font-style:normal;font-variant:normal;font-weight:normal;font-stretch:normal;font-size:medium;line-height:normal;font-family:sans-serif;text-indent:0;text-align:start;text-decoration:none;text-decoration-line:none;text-decoration-style:solid;text-decoration-color:#000000;letter-spacing:normal;word-spacing:normal;text-transform:none;direction:ltr;block-progression:tb;writing-mode:lr-tb;baseline-shift:baseline;text-anchor:start;white-space:normal;clip-rule:nonzero;display:inline;overflow:visible;visibility:visible;opacity:1;isolation:auto;mix-blend-mode:normal;color-interpolation:sRGB;color-interpolation-filters:linearRGB;solid-color:#000000;solid-opacity:1;fill:#f1f886;fill-opacity:1;fill-rule:nonzero;stroke:none;stroke-width:5;stroke-linecap:round;stroke-linejoin:round;stroke-miterlimit:4;stroke-dasharray:none;stroke-dashoffset:0;stroke-opacity:1;color-rendering:auto;image-rendering:auto;shape-rendering:auto;text-rendering:auto;enable-background:accumulate"
       d="m 33.427272,988.232 c -2.514418,-0.48929 -5.017541,1.19834 -5.506834,3.71274 l -0.52672,2.70676 -8.775244,-1.70762 a 2.7704211,2.7704211 0 1 0 -1.058261,5.43828 l 34.688498,6.75024 a 2.7704211,2.7704211 0 1 0 1.058262,-5.43831 l -8.003402,-1.55742 0.526719,-2.70675 c 0.489294,-2.51442 -1.196558,-5.0172 -3.710977,-5.50649 L 33.427272,988.232 Z m -0.881885,4.53189 8.692041,1.69143 c 0.08214,0.0161 0.077,0.0102 0.06096,0.0927 l -0.52672,2.70675 -8.846054,-1.7214 0.52672,-2.70675 c 0.01597,-0.0821 0.01089,-0.0788 0.09305,-0.0627 z"
       id="rect1463"
       inkscape:connector-curvature="0" />
  </g>
</svg>
