<?xml version="1.0" encoding="UTF-8" standalone="no"?>
<!-- Created with Inkscape (http://www.inkscape.org/) -->

<svg
   xmlns:dc="http://purl.org/dc/elements/1.1/"
   xmlns:cc="http://creativecommons.org/ns#"
   xmlns:rdf="http://www.w3.org/1999/02/22-rdf-syntax-ns#"
   xmlns:svg="http://www.w3.org/2000/svg"
   xmlns="http://www.w3.org/2000/svg"
   xmlns:sodipodi="http://sodipodi.sourceforge.net/DTD/sodipodi-0.dtd"
   xmlns:inkscape="http://www.inkscape.org/namespaces/inkscape"
   width="20mm"
   height="20mm"
   viewBox="0 0 70.866142 70.866141"
   id="svg2"
   version="1.1"
   inkscape:version="0.91 r13725"
   sodipodi:docname="remove-arm-for-recording.svg">
  <defs
     id="defs4" />
  <sodipodi:namedview
     id="base"
     pagecolor="#ffffff"
     bordercolor="#666666"
     borderopacity="1.0"
     inkscape:pageopacity="0.0"
     inkscape:pageshadow="2"
     inkscape:zoom="5.6568542"
     inkscape:cx="25.521506"
     inkscape:cy="32.507181"
     inkscape:document-units="px"
     inkscape:current-layer="layer1"
     showgrid="false"
     inkscape:window-width="1366"
     inkscape:window-height="704"
     inkscape:window-x="0"
     inkscape:window-y="27"
     inkscape:window-maximized="1" />
  <metadata
     id="metadata7">
    <rdf:RDF>
      <cc:Work
         rdf:about="">
        <dc:format>image/svg+xml</dc:format>
        <dc:type
           rdf:resource="http://purl.org/dc/dcmitype/StillImage" />
        <dc:title />
      </cc:Work>
    </rdf:RDF>
  </metadata>
  <g
     inkscape:label="Layer 1"
     inkscape:groupmode="layer"
     id="layer1"
     transform="translate(0,-981.49606)">
    <path
       style="color:#000000;font-style:normal;font-variant:normal;font-weight:bold;font-stretch:normal;font-size:medium;line-height:125%;font-family:sans-serif;-inkscape-font-specification:'sans-serif Bold';text-align:center;letter-spacing:0px;word-spacing:0px;text-anchor:middle;clip-rule:nonzero;visibility:visible;isolation:auto;mix-blend-mode:normal;color-interpolation:sRGB;color-interpolation-filters:linearRGB;solid-color:#000000;solid-opacity:1;fill:#f1f886;fill-opacity:1;fill-rule:nonzero;stroke:none;stroke-width:1.24015749;stroke-linecap:round;stroke-linejoin:round;stroke-miterlimit:4;stroke-dasharray:none;stroke-dashoffset:0;stroke-opacity:1;color-rendering:auto;image-rendering:auto;shape-rendering:auto;text-rendering:auto"
       d="M 49.169922 24.296875 C 47.045085 24.296875 45.361003 24.891431 44.119141 26.082031 C 42.877279 27.266965 42.255859 28.878569 42.255859 30.917969 C 42.255859 32.951635 42.877279 34.565259 44.119141 35.755859 C 45.361003 36.940726 47.045085 37.533203 49.169922 37.533203 C 49.881999 37.533203 50.565592 37.452435 51.220703 37.292969 C 51.875814 37.133435 52.503581 36.897318 53.107422 36.583984 L 53.107422 33.943359 C 52.497884 34.359159 51.897135 34.663689 51.304688 34.857422 C 50.71224 35.051089 50.088704 35.148438 49.433594 35.148438 C 48.260091 35.148438 47.338216 34.771465 46.666016 34.019531 C 45.993815 33.267531 45.65625 32.233835 45.65625 30.917969 C 45.65625 29.596302 45.993815 28.560527 46.666016 27.808594 C 47.338216 27.05666 48.260091 26.679688 49.433594 26.679688 C 50.088704 26.679687 50.71224 26.777036 51.304688 26.970703 C 51.897135 27.16437 52.497884 27.468899 53.107422 27.884766 L 53.107422 25.244141 C 52.503581 24.930874 51.875814 24.69469 51.220703 24.535156 C 50.565592 24.375623 49.881999 24.296875 49.169922 24.296875 z M 2.5390625 24.527344 L 2.5390625 27.013672 L 6.7773438 27.013672 L 6.7773438 37.285156 L 10.068359 37.285156 L 10.068359 27.013672 L 14.296875 27.013672 L 14.296875 24.527344 L 2.5390625 24.527344 z M 15.988281 24.527344 L 15.988281 37.285156 L 19.279297 37.285156 L 19.279297 32.457031 L 20.210938 32.457031 C 20.746419 32.457031 21.173177 32.573041 21.492188 32.806641 C 21.816895 33.040174 22.135905 33.477168 22.449219 34.115234 L 24.003906 37.285156 L 27.507812 37.285156 L 25.722656 33.662109 C 25.358073 32.927243 24.995605 32.380418 24.636719 32.021484 C 24.283529 31.656951 23.881673 31.422846 23.431641 31.320312 C 24.251953 31.063913 24.865071 30.66418 25.269531 30.123047 C 25.679687 29.581847 25.884766 28.889942 25.884766 28.046875 C 25.884766 26.827742 25.491211 25.93698 24.705078 25.373047 C 23.924641 24.809047 22.694173 24.527344 21.013672 24.527344 L 15.988281 24.527344 z M 32.660156 24.527344 L 27.935547 37.285156 L 31.242188 37.285156 L 32.052734 34.960938 L 37.197266 34.960938 L 38 37.285156 L 41.308594 37.285156 L 36.582031 24.527344 L 32.660156 24.527344 z M 55.841797 24.527344 L 55.841797 37.285156 L 59.132812 37.285156 L 59.132812 32.259766 L 64.208984 37.285156 L 68.326172 37.285156 L 61.550781 30.568359 L 67.695312 24.527344 L 63.875 24.527344 L 59.132812 29.183594 L 59.132812 24.527344 L 55.841797 24.527344 z M 19.279297 26.910156 L 20.664062 26.910156 C 21.353352 26.910156 21.844401 27.036443 22.140625 27.287109 C 22.442546 27.537709 22.59375 27.95409 22.59375 28.535156 C 22.59375 29.12189 22.442546 29.542428 22.140625 29.798828 C 21.844401 30.055161 21.353352 30.183594 20.664062 30.183594 L 19.279297 30.183594 L 19.279297 26.910156 z M 34.625 27.517578 L 36.369141 32.59375 L 32.873047 32.59375 L 34.625 27.517578 z M 49.203125 46.171875 C 47.078288 46.171875 45.394206 46.766431 44.152344 47.957031 C 42.910482 49.141965 42.291016 50.753569 42.291016 52.792969 C 42.291016 54.826635 42.910482 56.440259 44.152344 57.630859 C 45.394206 58.815726 47.078288 59.408203 49.203125 59.408203 C 49.915202 59.408203 50.598796 59.327435 51.253906 59.167969 C 51.909017 59.008435 52.538737 58.772318 53.142578 58.458984 L 53.142578 55.818359 C 52.53304 56.234159 51.932292 56.538689 51.339844 56.732422 C 50.747396 56.926089 50.123861 57.023438 49.46875 57.023438 C 48.295247 57.023437 47.371419 56.646465 46.699219 55.894531 C 46.027018 55.142531 45.691406 54.108835 45.691406 52.792969 C 45.691406 51.471302 46.027018 50.435527 46.699219 49.683594 C 47.371419 48.93166 48.295247 48.554688 49.46875 48.554688 C 50.123861 48.554687 50.747396 48.652036 51.339844 48.845703 C 51.932292 49.03937 52.53304 49.343899 53.142578 49.759766 L 53.142578 47.119141 C 52.538737 46.805874 51.909017 46.56969 51.253906 46.410156 C 50.598796 46.250623 49.915202 46.171875 49.203125 46.171875 z M 17.595703 46.402344 L 17.595703 59.160156 L 20.884766 59.160156 L 20.884766 54.332031 L 21.816406 54.332031 C 22.351888 54.332031 22.778646 54.448041 23.097656 54.681641 C 23.422364 54.915174 23.741373 55.352168 24.054688 55.990234 L 25.611328 59.160156 L 29.113281 59.160156 L 27.328125 55.537109 C 26.963542 54.802243 26.601074 54.255418 26.242188 53.896484 C 25.888998 53.531951 25.489095 53.297846 25.039062 53.195312 C 25.859374 52.938912 26.47054 52.53918 26.875 51.998047 C 27.285156 51.456847 27.490234 50.764942 27.490234 49.921875 C 27.490234 48.702742 27.09668 47.81198 26.310547 47.248047 C 25.530111 46.684047 24.299642 46.402344 22.619141 46.402344 L 17.595703 46.402344 z M 31.0625 46.402344 L 31.0625 59.160156 L 40.128906 59.160156 L 40.128906 56.671875 L 34.351562 56.671875 L 34.351562 53.75 L 39.607422 53.75 L 39.607422 51.263672 L 34.351562 51.263672 L 34.351562 48.888672 L 39.941406 48.888672 L 39.941406 46.402344 L 31.0625 46.402344 z M 20.884766 48.785156 L 22.269531 48.785156 C 22.958822 48.785156 23.451824 48.911443 23.748047 49.162109 C 24.049968 49.412709 24.201172 49.82909 24.201172 50.410156 C 24.201172 50.99689 24.049968 51.417428 23.748047 51.673828 C 23.451824 51.930161 22.958822 52.058594 22.269531 52.058594 L 20.884766 52.058594 L 20.884766 48.785156 z "
       transform="translate(0,981.49606)"
       id="path1902" />
    <path
       style="color:#000000;font-style:normal;font-variant:normal;font-weight:normal;font-stretch:normal;font-size:medium;line-height:normal;font-family:sans-serif;text-indent:0;text-align:start;text-decoration:none;text-decoration-line:none;text-decoration-style:solid;text-decoration-color:#000000;letter-spacing:normal;word-spacing:normal;text-transform:none;direction:ltr;block-progression:tb;writing-mode:lr-tb;baseline-shift:baseline;text-anchor:start;white-space:normal;clip-rule:nonzero;display:inline;overflow:visible;visibility:visible;opacity:1;isolation:auto;mix-blend-mode:normal;color-interpolation:sRGB;color-interpolation-filters:linearRGB;solid-color:#000000;solid-opacity:1;fill:#f8e182;fill-opacity:1;fill-rule:nonzero;stroke:none;stroke-width:7.44094467;stroke-linecap:round;stroke-linejoin:round;stroke-miterlimit:4;stroke-dasharray:none;stroke-dashoffset:0;stroke-opacity:1;color-rendering:auto;image-rendering:auto;shape-rendering:auto;text-rendering:auto;enable-background:accumulate"
       d="M 8.5234375 4.8046875 A 3.7208444 3.7208444 0 0 0 5.9316406 11.193359 L 30.171875 35.433594 L 5.9316406 59.671875 A 3.7208444 3.7208444 0 1 0 11.193359 64.933594 L 35.433594 40.695312 L 59.671875 64.933594 A 3.7208444 3.7208444 0 1 0 64.933594 59.671875 L 40.695312 35.433594 L 64.933594 11.193359 A 3.7208444 3.7208444 0 0 0 62.230469 4.8066406 A 3.7208444 3.7208444 0 0 0 59.671875 5.9316406 L 35.433594 30.171875 L 11.193359 5.9316406 A 3.7208444 3.7208444 0 0 0 8.5234375 4.8046875 z "
       transform="translate(0,981.49606)"
       id="path1792" />
    <path
       style="color:#000000;font-style:normal;font-variant:normal;font-weight:bold;font-stretch:normal;font-size:medium;line-height:125%;font-family:sans-serif;-inkscape-font-specification:'sans-serif Bold';text-align:center;letter-spacing:0px;word-spacing:0px;text-anchor:middle;clip-rule:nonzero;visibility:visible;isolation:auto;mix-blend-mode:normal;color-interpolation:sRGB;color-interpolation-filters:linearRGB;solid-color:#000000;solid-opacity:1;fill:#f2faa6;fill-opacity:1;fill-rule:nonzero;stroke:none;stroke-width:1.24015749;stroke-linecap:round;stroke-linejoin:round;stroke-miterlimit:4;stroke-dasharray:none;stroke-dashoffset:0;stroke-opacity:1;color-rendering:auto;image-rendering:auto;shape-rendering:auto;text-rendering:auto"
       d="M 49.169922 24.296875 C 47.045085 24.296875 45.361003 24.891431 44.119141 26.082031 C 42.877279 27.266965 42.255859 28.878569 42.255859 30.917969 C 42.255859 31.859161 42.396004 32.705837 42.662109 33.466797 L 45.6875 30.439453 C 45.762609 29.350039 46.079583 28.464586 46.666016 27.808594 C 47.338216 27.05666 48.260091 26.679688 49.433594 26.679688 C 49.438287 26.679687 49.442575 26.681631 49.447266 26.681641 L 51.505859 24.623047 C 51.410046 24.596062 51.317705 24.558778 51.220703 24.535156 C 50.565592 24.375623 49.881999 24.296875 49.169922 24.296875 z M 19.265625 24.527344 L 21.849609 27.111328 C 21.960519 27.161389 22.059216 27.21822 22.140625 27.287109 C 22.266913 27.391931 22.36008 27.532562 22.433594 27.695312 L 25.076172 30.337891 C 25.14181 30.266939 25.212257 30.199675 25.269531 30.123047 C 25.679687 29.581847 25.884766 28.889942 25.884766 28.046875 C 25.884766 26.827742 25.491211 25.93698 24.705078 25.373047 C 23.924641 24.809047 22.694173 24.527344 21.013672 24.527344 L 19.265625 24.527344 z M 31.884766 26.623047 L 29.041016 34.302734 L 30.171875 35.433594 L 28.320312 37.285156 L 31.242188 37.285156 L 32.052734 34.960938 L 37.197266 34.960938 L 38 37.285156 L 41.308594 37.285156 L 37.796875 27.808594 L 35.509766 30.095703 L 36.369141 32.59375 L 32.873047 32.59375 L 34.152344 28.890625 L 31.884766 26.623047 z M 49.203125 46.171875 C 47.078288 46.171875 45.394206 46.766431 44.152344 47.957031 C 43.899404 48.198376 43.677887 48.461527 43.476562 48.738281 L 45.910156 51.171875 C 46.076767 50.594355 46.333472 50.092722 46.699219 49.683594 C 47.371419 48.93166 48.295247 48.554688 49.46875 48.554688 C 50.123861 48.554687 50.747396 48.652036 51.339844 48.845703 C 51.932292 49.03937 52.53304 49.343899 53.142578 49.759766 L 53.142578 47.880859 L 51.857422 46.595703 C 51.657169 46.530658 51.459159 46.46014 51.253906 46.410156 C 50.598796 46.250623 49.915202 46.171875 49.203125 46.171875 z M 19.203125 46.402344 L 17.595703 48.007812 L 17.595703 58.53125 L 20.884766 55.242188 L 20.884766 54.332031 L 21.794922 54.332031 L 27.333984 48.794922 C 27.156498 48.142908 26.826441 47.618124 26.310547 47.248047 C 25.530111 46.684047 24.299642 46.402344 22.619141 46.402344 L 19.203125 46.402344 z M 20.884766 48.785156 L 22.269531 48.785156 C 22.958822 48.785156 23.451824 48.911443 23.748047 49.162109 C 24.049968 49.412709 24.201172 49.82909 24.201172 50.410156 C 24.201172 50.99689 24.049968 51.417428 23.748047 51.673828 C 23.451824 51.930161 22.958822 52.058594 22.269531 52.058594 L 20.884766 52.058594 L 20.884766 48.785156 z M 53.142578 55.818359 C 52.56441 56.21276 51.99441 56.498778 51.431641 56.693359 L 53.142578 58.404297 L 53.142578 55.818359 z "
       transform="translate(0,981.49606)"
       id="path1934" />
  </g>
</svg>
