<?xml version="1.0" encoding="UTF-8" standalone="no"?>
<!-- Created with Inkscape (http://www.inkscape.org/) -->

<svg
   xmlns:dc="http://purl.org/dc/elements/1.1/"
   xmlns:cc="http://creativecommons.org/ns#"
   xmlns:rdf="http://www.w3.org/1999/02/22-rdf-syntax-ns#"
   xmlns:svg="http://www.w3.org/2000/svg"
   xmlns="http://www.w3.org/2000/svg"
   xmlns:sodipodi="http://sodipodi.sourceforge.net/DTD/sodipodi-0.dtd"
   xmlns:inkscape="http://www.inkscape.org/namespaces/inkscape"
   width="20mm"
   height="20mm"
   viewBox="0 0 70.866142 70.866141"
   id="svg2"
   version="1.1"
   inkscape:version="0.91 r13725"
   sodipodi:docname="status-bad.svg">
  <defs
     id="defs4" />
  <sodipodi:namedview
     id="base"
     pagecolor="#ffffff"
     bordercolor="#666666"
     borderopacity="1.0"
     inkscape:pageopacity="0.0"
     inkscape:pageshadow="2"
     inkscape:zoom="4"
     inkscape:cx="17.659905"
     inkscape:cy="34.392035"
     inkscape:document-units="px"
     inkscape:current-layer="layer1"
     showgrid="false"
     inkscape:window-width="1366"
     inkscape:window-height="704"
     inkscape:window-x="0"
     inkscape:window-y="27"
     inkscape:window-maximized="1" />
  <metadata
     id="metadata7">
    <rdf:RDF>
      <cc:Work
         rdf:about="">
        <dc:format>image/svg+xml</dc:format>
        <dc:type
           rdf:resource="http://purl.org/dc/dcmitype/StillImage" />
        <dc:title></dc:title>
      </cc:Work>
    </rdf:RDF>
  </metadata>
  <g
     inkscape:label="Layer 1"
     inkscape:groupmode="layer"
     id="layer1"
     transform="translate(0,-981.49606)">
    <g
       style="color:#000000;font-style:normal;font-weight:normal;font-size:84.71802521px;line-height:125%;font-family:sans-serif;text-align:center;letter-spacing:0px;word-spacing:0px;text-anchor:middle;clip-rule:nonzero;display:inline;overflow:visible;visibility:visible;opacity:1;isolation:auto;mix-blend-mode:normal;color-interpolation:sRGB;color-interpolation-filters:linearRGB;solid-color:#000000;solid-opacity:1;fill:#f1f886;fill-opacity:1;fill-rule:nonzero;stroke:none;stroke-width:4.47488022;stroke-linecap:round;stroke-linejoin:round;stroke-miterlimit:4;stroke-dasharray:none;stroke-dashoffset:0;stroke-opacity:1;color-rendering:auto;image-rendering:auto;shape-rendering:auto;text-rendering:auto;enable-background:accumulate"
       id="text1009"
       transform="translate(0.83816237,0.97026087)">
      <path
         d="m 40.158666,997.86114 q 0,1.94421 -0.206832,3.76436 -0.206831,1.7787 -0.53776,4.0125 l -2.895636,21.014 -4.012524,0 -2.688804,-19.4007 q -0.206831,-1.4478 -0.372296,-2.6888 -0.165465,-1.241 -0.33093,-2.3579 -0.165465,-1.1169 -0.248197,-2.1924 -0.08273,-1.07554 -0.08273,-2.23379 0,-4.92258 1.489184,-7.19773 1.53055,-2.27514 4.302087,-2.27514 1.365086,0 2.399241,0.4964 1.034156,0.45503 1.737382,1.57191 0.744592,1.11689 1.075522,2.97837 0.372296,1.82012 0.372296,4.50892 z m 0.910056,39.21516 q 0,1.3651 -0.496394,2.5647 -0.496395,1.1996 -1.365086,2.0683 -0.86869,0.8687 -2.068311,1.4065 -1.158254,0.4964 -2.481973,0.4964 -1.365085,0 -2.564706,-0.4964 -1.19962,-0.5378 -2.068311,-1.4065 -0.868691,-0.8687 -1.406452,-2.0683 -0.496394,-1.1996 -0.496394,-2.5647 0,-1.3237 0.496394,-2.482 0.537761,-1.1996 1.406452,-2.0683 0.868691,-0.8687 2.068311,-1.3651 1.199621,-0.4963 2.564706,-0.4963 1.323719,0 2.481973,0.4963 1.199621,0.4964 2.068311,1.3651 0.868691,0.8687 1.365086,2.0683 0.496394,1.1583 0.496394,2.482 z"
         style="color:#000000;font-style:normal;font-variant:normal;font-weight:normal;font-stretch:normal;font-family:'Abyssinica SIL';-inkscape-font-specification:'Abyssinica SIL';clip-rule:nonzero;display:inline;overflow:visible;visibility:visible;isolation:auto;mix-blend-mode:normal;color-interpolation:sRGB;color-interpolation-filters:linearRGB;solid-color:#000000;solid-opacity:1;fill:#f1f886;fill-opacity:1;fill-rule:nonzero;stroke:none;stroke-width:4.47488022;stroke-linecap:round;stroke-linejoin:round;stroke-miterlimit:4;stroke-dasharray:none;stroke-dashoffset:0;stroke-opacity:1;color-rendering:auto;image-rendering:auto;shape-rendering:auto;text-rendering:auto;enable-background:accumulate"
         id="path1026"
         inkscape:connector-curvature="0" />
    </g>
  </g>
</svg>
