<?xml version="1.0" encoding="UTF-8" standalone="no"?>
<!-- Created with Inkscape (http://www.inkscape.org/) -->

<svg
   xmlns:dc="http://purl.org/dc/elements/1.1/"
   xmlns:cc="http://creativecommons.org/ns#"
   xmlns:rdf="http://www.w3.org/1999/02/22-rdf-syntax-ns#"
   xmlns:svg="http://www.w3.org/2000/svg"
   xmlns="http://www.w3.org/2000/svg"
   xmlns:sodipodi="http://sodipodi.sourceforge.net/DTD/sodipodi-0.dtd"
   xmlns:inkscape="http://www.inkscape.org/namespaces/inkscape"
   width="20mm"
   height="20mm"
   viewBox="0 0 70.866142 70.866141"
   id="svg2"
   version="1.1"
   inkscape:version="0.91 r13725"
   sodipodi:docname="transport.svg">
  <defs
     id="defs4" />
  <sodipodi:namedview
     id="base"
     pagecolor="#ffffff"
     bordercolor="#666666"
     borderopacity="1.0"
     inkscape:pageopacity="0.0"
     inkscape:pageshadow="2"
     inkscape:zoom="7.9999996"
     inkscape:cx="33.384264"
     inkscape:cy="33.850705"
     inkscape:document-units="px"
     inkscape:current-layer="layer1"
     showgrid="false"
     inkscape:window-width="1366"
     inkscape:window-height="704"
     inkscape:window-x="0"
     inkscape:window-y="27"
     inkscape:window-maximized="1" />
  <metadata
     id="metadata7">
    <rdf:RDF>
      <cc:Work
         rdf:about="">
        <dc:format>image/svg+xml</dc:format>
        <dc:type
           rdf:resource="http://purl.org/dc/dcmitype/StillImage" />
        <dc:title />
      </cc:Work>
    </rdf:RDF>
  </metadata>
  <g
     inkscape:label="Layer 1"
     inkscape:groupmode="layer"
     id="layer1"
     transform="translate(0,-981.49606)">
    <path
       style="color:#000000;clip-rule:nonzero;display:inline;overflow:visible;visibility:visible;opacity:1;isolation:auto;mix-blend-mode:normal;color-interpolation:sRGB;color-interpolation-filters:linearRGB;solid-color:#000000;solid-opacity:1;fill:#f1f886;fill-opacity:1;fill-rule:nonzero;stroke:none;stroke-width:5.31496048;stroke-linecap:butt;stroke-linejoin:round;stroke-miterlimit:4;stroke-dasharray:none;stroke-dashoffset:0;stroke-opacity:1;color-rendering:auto;image-rendering:auto;shape-rendering:auto;text-rendering:auto;enable-background:accumulate"
       d="m 17.091797,1026.7586 a 9.8298254,9.8298254 0 0 1 -9.8300782,-9.8301 9.8298254,9.8298254 0 0 1 9.8300782,-9.8301 9.8298254,9.8298254 0 0 1 9.830078,9.8301 9.8298254,9.8298254 0 0 1 -9.830078,9.8301 z m -3.355469,-2.0645 a 2.999912,2.999912 0 0 0 2.0625,-0.916 2.999912,2.999912 0 0 0 -0.07617,-4.2422 2.999912,2.999912 0 0 0 -4.242187,0.076 2.999912,2.999912 0 0 0 0.07617,4.2422 2.999912,2.999912 0 0 0 2.179687,0.8398 z m 8.369141,-1.5312 a 2.999912,2.999912 0 0 0 2.0625,-0.916 2.999912,2.999912 0 0 0 -0.07617,-4.2403 2.999912,2.999912 0 0 0 -4.242188,0.074 2.999912,2.999912 0 0 0 0.07617,4.2422 2.999912,2.999912 0 0 0 2.179688,0.8399 z m -9.832031,-6.4707 a 2.999912,2.999912 0 0 0 2.060546,-0.916 2.999912,2.999912 0 0 0 -0.07422,-4.2403 2.999912,2.999912 0 0 0 -4.242188,0.074 2.999912,2.999912 0 0 0 0.07617,4.2422 2.999912,2.999912 0 0 0 2.179688,0.8399 z m 8.36914,-1.5313 a 2.999912,2.999912 0 0 0 2.060547,-0.914 2.999912,2.999912 0 0 0 -0.07422,-4.2422 2.999912,2.999912 0 0 0 -4.242187,0.074 2.999912,2.999912 0 0 0 0.07422,4.2422 2.999912,2.999912 0 0 0 2.18164,0.8398 z"
       id="path827"
       inkscape:connector-curvature="0" />
    <path
       style="color:#000000;clip-rule:nonzero;display:inline;overflow:visible;visibility:visible;opacity:1;isolation:auto;mix-blend-mode:normal;color-interpolation:sRGB;color-interpolation-filters:linearRGB;solid-color:#000000;solid-opacity:1;fill:#f1f886;fill-opacity:1;fill-rule:nonzero;stroke:none;stroke-width:5.31496048;stroke-linecap:butt;stroke-linejoin:round;stroke-miterlimit:4;stroke-dasharray:none;stroke-dashoffset:0;stroke-opacity:1;color-rendering:auto;image-rendering:auto;shape-rendering:auto;text-rendering:auto;enable-background:accumulate"
       d="m 53.773438,1026.7586 a 9.8298254,9.8298254 0 0 1 -9.830079,-9.8301 9.8298254,9.8298254 0 0 1 9.830079,-9.8301 9.8298254,9.8298254 0 0 1 9.830078,9.8301 9.8298254,9.8298254 0 0 1 -9.830078,9.8301 z m 2.964843,-1.7774 a 2.999912,2.999912 0 0 0 1.091797,-0.1855 2.999912,2.999912 0 0 0 1.777344,-3.8516 2.999912,2.999912 0 0 0 -3.851563,-1.7773 2.999912,2.999912 0 0 0 -1.779297,3.8515 2.999912,2.999912 0 0 0 2.761719,1.9629 z m -8.201172,-2.2636 a 2.999912,2.999912 0 0 0 1.091797,-0.1836 2.999912,2.999912 0 0 0 1.777344,-3.8535 2.999912,2.999912 0 0 0 -3.851562,-1.7774 2.999912,2.999912 0 0 0 -1.777344,3.8516 2.999912,2.999912 0 0 0 2.759765,1.9629 z m 10.365235,-5.5782 a 2.999912,2.999912 0 0 0 1.089844,-0.1836 2.999912,2.999912 0 0 0 1.779296,-3.8535 2.999912,2.999912 0 0 0 -3.853515,-1.7773 2.999912,2.999912 0 0 0 -1.777344,3.8515 2.999912,2.999912 0 0 0 2.761719,1.9629 z m -8.201172,-2.2636 a 2.999912,2.999912 0 0 0 1.091797,-0.1836 2.999912,2.999912 0 0 0 1.777343,-3.8516 2.999912,2.999912 0 0 0 -3.851562,-1.7793 2.999912,2.999912 0 0 0 -1.779297,3.8535 2.999912,2.999912 0 0 0 2.761719,1.961 z"
       id="path827-7"
       inkscape:connector-curvature="0" />
    <path
       style="color:#000000;clip-rule:nonzero;display:inline;overflow:visible;visibility:visible;opacity:1;isolation:auto;mix-blend-mode:normal;color-interpolation:sRGB;color-interpolation-filters:linearRGB;solid-color:#000000;solid-opacity:1;fill:none;fill-opacity:1;fill-rule:nonzero;stroke:#f1f886;stroke-width:6.73228359;stroke-linecap:round;stroke-linejoin:round;stroke-miterlimit:4;stroke-dasharray:none;stroke-dashoffset:0;stroke-opacity:1;color-rendering:auto;image-rendering:auto;shape-rendering:auto;text-rendering:auto;enable-background:accumulate"
       d="m 17.048294,1026.7586 36.769554,0"
       id="path872"
       inkscape:connector-curvature="0" />
    <circle
       r="9.8298254"
       cy="-1016.9291"
       cx="17.092487"
       id="circle976"
       style="color:#000000;clip-rule:nonzero;display:inline;overflow:visible;visibility:visible;opacity:1;isolation:auto;mix-blend-mode:normal;color-interpolation:sRGB;color-interpolation-filters:linearRGB;solid-color:#000000;solid-opacity:1;fill:none;fill-opacity:1;fill-rule:nonzero;stroke:#f1f886;stroke-width:6.73228359;stroke-linecap:butt;stroke-linejoin:round;stroke-miterlimit:4;stroke-dasharray:none;stroke-dashoffset:0;stroke-opacity:1;color-rendering:auto;image-rendering:auto;shape-rendering:auto;text-rendering:auto;enable-background:accumulate"
       transform="scale(1,-1)" />
    <circle
       r="9.8298254"
       cy="-1016.9291"
       cx="53.773655"
       id="circle978"
       style="color:#000000;clip-rule:nonzero;display:inline;overflow:visible;visibility:visible;opacity:1;isolation:auto;mix-blend-mode:normal;color-interpolation:sRGB;color-interpolation-filters:linearRGB;solid-color:#000000;solid-opacity:1;fill:none;fill-opacity:1;fill-rule:nonzero;stroke:#f1f886;stroke-width:6.73228359;stroke-linecap:butt;stroke-linejoin:round;stroke-miterlimit:4;stroke-dasharray:none;stroke-dashoffset:0;stroke-opacity:1;color-rendering:auto;image-rendering:auto;shape-rendering:auto;text-rendering:auto;enable-background:accumulate"
       transform="scale(1,-1)" />
  </g>
</svg>
